<svg preserveAspectRatio="xMidYMid meet" data-bbox="112.98 315.74 2048.858 1643.315" viewBox="0 0 2274.81 2274.81" xmlns="http://www.w3.org/2000/svg" data-type="ugc" role="presentation" aria-hidden="true" aria-label="">
    <g style="isolation:isolate">
        <path d="M2158.76 1190.18c-18.59-148.56-119.54-274.57-273.21-364.56-57.27 69.98-144.3 114.66-241.78 114.66-155.28 0-284.06-113.35-308.19-261.81-26.57-1.19-53.48-1.71-80.69-1.54-23.48 149.22-152.63 263.35-308.44 263.35-115.08 0-215.61-62.26-269.77-154.93-359.9 140.43-593.47 398-560.63 660.42 43.4 346.88 535.87 570.87 1099.95 500.29s986.17-409 942.77-755.89Z" fill="#b0e212"></path>
        <path d="M1254.9 676.93c2.51-15.94 3.82-32.27 3.82-48.92 0-172.46-139.81-312.27-312.27-312.27S634.18 455.55 634.18 628.01c0 57.38 15.49 111.13 42.5 157.34 115.85-45.2 244.77-78.28 382.13-95.46 66.57-8.33 132.13-12.55 196.08-12.96Z" style="mix-blend-mode:multiply" fill="#b0e212"></path>
        <path d="M946.45 940.28c155.82 0 284.96-114.13 308.44-263.35-63.95.41-129.52 4.63-196.08 12.96-137.35 17.19-266.28 50.26-382.13 95.46 54.16 92.67 154.69 154.93 269.77 154.93" fill="#b0e212"></path>
        <path d="M946.45 940.28c155.82 0 284.96-114.13 308.44-263.35-63.95.41-129.52 4.63-196.08 12.96-137.35 17.19-266.28 50.26-382.13 95.46 54.16 92.67 154.69 154.93 269.77 154.93" fill="#71c114"></path>
        <path d="M1956.04 628.01c0-172.46-139.81-312.27-312.27-312.27S1331.5 455.55 1331.5 628.01c0 17.18 1.41 34.03 4.08 50.46 213.59 9.55 405.18 62.35 549.97 147.15 44.05-53.83 70.48-122.63 70.48-197.61Z" style="mix-blend-mode:multiply" fill="#b0e212"></path>
        <path d="M1643.77 940.28c97.48 0 184.52-44.68 241.78-114.66-144.79-84.8-336.38-137.6-549.97-147.15 24.12 148.46 152.91 261.81 308.19 261.81" fill="#b0e212"></path>
        <path d="M1643.77 940.28c97.48 0 184.52-44.68 241.78-114.66-144.79-84.8-336.38-137.6-549.97-147.15 24.12 148.46 152.91 261.81 308.19 261.81" fill="#71c114"></path>
        <path style="mix-blend-mode:multiply" fill="#1a1a1a" d="M1031.3 685.56c0 89.078-72.212 161.29-161.29 161.29s-161.29-72.212-161.29-161.29 72.212-161.29 161.29-161.29 161.29 72.212 161.29 161.29"></path>
        <path style="mix-blend-mode:multiply" fill="#1a1a1a" d="M1722.67 674.99c0 89.078-72.212 161.29-161.29 161.29s-161.29-72.212-161.29-161.29 72.212-161.29 161.29-161.29 161.29 72.212 161.29 161.29"></path>
        <path d="M792.63 1461.66c-43.98-41.03-79.14-86.74-101.47-142.31-9.46 5.77-17.88 10.95-26.35 16.06-9.21 5.56-17.08 4.52-21.86-2.81-4.58-7.01-2.06-15.73 6.56-20.97 24.57-14.94 49.23-29.71 73.9-44.49 2.73-1.64 5.58-3.14 8.53-4.32 7.67-3.09 15.6-.39 18.99 6.25 3.38 6.6.88 14.67-6.27 18.9-9.31 5.51-18.8 10.71-28.67 16.3 9.93 25.4 21.4 49.27 37.41 70.46 53.77 71.18 120.99 126.61 202.37 162.83 56.3 25.06 115.21 43.46 176.85 51.77 48.19 6.5 95.56.57 143-6.72 63.97-9.83 122.52-34.02 179.4-64.22 30.38-16.13 58.9-34.67 86.19-55.08 23.67-17.7 45.42-37.96 70.44-59.14-7.21-7.41-14.02-13.7-19.97-20.72-7.11-8.4-6.7-17.53.14-22.84 6.78-5.26 14.52-3.61 21.68 4.61 20.76 23.87 41.51 47.73 62.28 71.59 6.23 7.16 6.51 15.72.64 21.37-5.94 5.72-14.2 5.29-21.19-1.81-8.95-9.09-17.47-18.61-26.54-28.34-18.24 15.16-35.91 30.69-54.47 45.06-27.47 21.27-54.12 43.88-85.64 59.27-35.56 17.35-70.59 36.02-107.1 51.1-54.79 22.62-113.08 30.57-171.82 35.94-48.83 4.47-96.16-3.48-143.41-13.88-2.31-.51-5.18-.74-7.21.17-27.6 12.38-49.83 31.95-70.4 53.55-27.88 29.27-60.29 52.82-96.13 70.6-31.42 15.59-65.35 22.58-100.16 9.52-51.26-19.23-91-60.04-94.7-116.22-4.68-71.11 28.97-120.52 86.78-156.77 2.39-1.5 4.9-2.81 8.22-4.71Zm96.14 73.07c.85.54 1.7 1.09 2.54 1.63-3.12-2.01-6.33-3.89-9.33-6.07-18.34-13.3-37.1-26.09-54.71-40.3-7.17-5.79-12.9-6.71-20.62-2.88-36.92 18.32-63.57 46.03-75.68 85.78-12.26 40.26-7.36 77.87 23.15 109.17 7.91 8.12 17.82 14.44 27.3 20.84 15.78 10.65 33.48 16.4 52.48 14.04 19.3-2.4 38.58-6.18 55.33-17.16 14.95-9.81 30.74-18.7 44.29-30.19 29.35-24.9 57.51-51.21 86.44-77.2-1.41-.64-3.31-1.58-5.28-2.37-33.14-13.26-66.25-26.62-99.53-39.54-2.91-1.13-7.61-.51-10.32 1.17-31.57 19.59-59.43 43.06-77.25 76.57-3.15 5.92-7.69 9.13-13.99 5.68-6.15-3.37-5.5-9.13-1.98-14.04 10.17-14.21 19.61-29.17 31.37-41.95 14.17-15.4 30.44-28.87 45.8-43.17Z" stroke="#231f20" stroke-miterlimit="10" stroke-width="40"></path>
    </g>
</svg> 